<svg width="505" height="515" viewBox="0 0 505 515" fill="none" xmlns="http://www.w3.org/2000/svg">
<path d="M265.681 166.566L146.193 272.192C146.193 272.192 242.395 395.556 386.583 370.248L393.432 193.174L346.824 161.227L285.729 154.787L265.687 166.572L265.681 166.566Z" fill="url(#paint0_linear_1253_17749)"/>
<path d="M266.637 50.9893C266.637 50.9893 304.422 10.9414 372.782 29.5269C441.141 48.1124 447.672 90.4955 447.672 90.4955L428.743 132.102L317.766 117.056C317.766 117.056 256.833 103.508 266.643 50.9833L266.637 50.9893Z" fill="#BFBFBF"/>
<path d="M503.837 155.871C497.169 189.582 415.875 202.774 331.759 186.139C247.636 169.503 183.165 128.077 189.834 94.3669C196.502 60.6566 271.783 47.4216 355.906 64.0571C440.028 80.6926 510.506 122.155 503.843 155.871H503.837Z" fill="#D9D9D9"/>
<path d="M412.831 169.147C409.448 186.24 371.206 193.517 331.856 185.735C292.506 177.953 262.564 157.495 265.946 140.402C269.329 123.31 304.754 116.057 344.098 123.839C383.448 131.621 416.213 152.055 412.831 169.147Z" fill="white"/>
<path d="M260.348 93.4747C260.601 97.6456 253.716 101.564 245.831 102.045C237.941 102.527 231.176 99.5174 230.923 95.3465C230.671 91.1756 237.02 87.426 244.911 86.9445C252.801 86.463 260.102 89.3038 260.354 93.4687L260.348 93.4747Z" fill="white"/>
<path d="M335.973 81.305C336.081 85.4819 329.057 89.1473 321.155 89.3519C313.252 89.5565 306.602 86.3004 306.494 82.1235C306.385 77.9466 312.873 74.4317 320.77 74.2271C328.666 74.0225 335.864 77.1281 335.967 81.305H335.973Z" fill="white"/>
<path d="M410.67 99.1507C409.533 103.171 401.739 104.598 394.137 102.443C386.536 100.288 381.137 95.2206 382.275 91.2001C383.412 87.1797 390.646 85.7412 398.248 87.8899C405.856 90.0385 411.808 95.1303 410.67 99.1507Z" fill="white"/>
<path d="M468.718 141.402C466.437 144.904 458.571 143.947 451.951 139.632C445.33 135.323 441.689 128.871 443.964 125.368C446.245 121.865 453.576 122.641 460.202 126.951C466.823 131.26 470.993 137.893 468.718 141.396V141.402Z" fill="white"/>
<path d="M504.042 148.065C499.661 115.968 433.612 79.4107 355.9 64.0572C271.784 47.4278 196.491 60.6567 189.822 94.373C189.714 94.9027 189.635 95.4383 189.557 95.968C189.214 93.2295 189.292 90.497 189.822 87.8127C196.491 54.0964 271.784 40.8675 355.9 57.4969C438.981 73.9157 508.773 114.59 504.042 148.071V148.065Z" fill="#B6B6B6"/>
<path d="M375.738 0C369.749 0 364.898 4.85704 364.898 10.8395C364.898 15.3355 367.637 19.1934 371.537 20.8365L367.842 34.7395L373.06 35.7326L374.721 21.5768C375.058 21.6069 375.389 21.6791 375.738 21.6791C381.727 21.6791 386.578 16.8221 386.578 10.8395C386.578 4.85704 381.727 0 375.738 0Z" fill="#C0C0C0"/>
<path d="M93.3686 430.338C93.3686 430.338 86.4592 432.709 84.768 426.745C83.0767 420.781 79.4174 422.273 78.6049 419.156C78.2558 417.825 78.1234 415.737 78.0752 413.787C78.0151 411.109 79.2007 408.605 81.1929 406.805C81.7406 406.312 82.1559 405.776 82.198 405.271C82.3364 403.646 78.5387 402.087 78.8757 399.511C79.2128 396.935 81.3795 397.073 81.5841 395.448C81.7887 393.823 82.192 393.011 80.2961 391.723C78.4002 390.435 76.2335 389.827 79.4836 386.372C82.7336 382.917 98.996 381.292 103.468 386.101C107.94 390.91 101.704 393.757 107.735 397.615C107.735 397.615 113.356 398.837 116.612 398.632C119.423 398.458 119.194 405.319 114.139 408.755C111.629 410.459 110.233 413.54 110.853 416.507C110.907 416.766 110.973 417.019 111.057 417.26C112.074 420.173 107.603 418.409 106.248 423.832C104.894 429.249 93.3746 430.338 93.3746 430.338H93.3686Z" fill="#EEEEEE"/>
<path d="M96.4793 405.854L94.752 459.203H101.457L98.1043 405.854H96.4793Z" fill="#BDBDBD"/>
<path d="M96.1475 433.167L90.9053 426.432C89.9965 425.258 89.4187 423.868 89.2381 422.393L88.9492 420.07L89.84 419.962L91.146 424.036C91.1821 424.331 91.4529 424.542 91.7479 424.506C92.0428 424.47 92.2534 424.199 92.2173 423.904L92.3437 416.844L93.2646 416.609L94.5646 427.166L97.5859 429.796L96.1475 433.173V433.167Z" fill="#BDBDBD"/>
<path d="M101.197 406.275L100.27 413.744C100.27 414.478 99.9693 415.207 99.3855 415.658C99.0665 415.911 98.6452 416.097 98.1035 416.097V418.74C98.1035 418.74 101.967 417.518 102.509 415.556C103.051 413.594 102.509 406.275 102.509 406.275H101.203H101.197Z" fill="#BDBDBD"/>
<path d="M386.367 430.338C386.367 430.338 379.457 432.709 377.766 426.745C376.075 420.781 372.415 422.273 371.603 419.156C371.254 417.825 371.121 415.737 371.073 413.787C371.013 411.109 372.199 408.605 374.191 406.805C374.739 406.312 375.154 405.776 375.196 405.271C375.334 403.646 371.537 402.087 371.874 399.511C372.211 396.935 374.377 397.073 374.582 395.448C374.787 393.823 375.19 393.011 373.294 391.723C371.398 390.435 369.232 389.827 372.482 386.372C375.732 382.917 391.994 381.292 396.466 386.101C400.938 390.91 394.702 393.757 400.733 397.615C400.733 397.615 406.355 398.837 409.611 398.632C412.421 398.458 412.193 405.319 407.137 408.755C404.627 410.459 403.231 413.54 403.851 416.507C403.905 416.766 403.971 417.019 404.055 417.26C405.072 420.173 400.601 418.409 399.246 423.832C397.892 429.249 386.373 430.338 386.373 430.338H386.367Z" fill="#EEEEEE"/>
<path d="M389.477 405.854L387.75 459.203H394.461L391.108 405.854H389.477Z" fill="#BDBDBD"/>
<path d="M389.153 433.167L383.911 426.432C383.002 425.258 382.425 423.868 382.244 422.393L381.955 420.07L382.846 419.962L384.152 424.036C384.188 424.331 384.459 424.542 384.754 424.506C385.049 424.47 385.259 424.199 385.223 423.904L385.35 416.844L386.27 416.609L387.571 427.166L390.592 429.796L389.153 433.173V433.167Z" fill="#BDBDBD"/>
<path d="M394.203 406.275L393.276 413.744C393.276 414.478 392.975 415.207 392.391 415.658C392.072 415.911 391.651 416.097 391.109 416.097V418.74C391.109 418.74 394.973 417.518 395.515 415.556C396.057 413.594 395.515 406.275 395.515 406.275H394.209H394.203Z" fill="#BDBDBD"/>
<path d="M0.566406 505.914C0.566406 505.914 51.3335 441.165 244.495 439.607C437.657 438.048 491.789 514.49 491.789 514.49" fill="url(#paint1_linear_1253_17749)"/>
<path d="M179.068 323.145C179.068 323.145 176.612 325.221 175.354 325.763C174.096 326.305 171.213 326.967 172.11 327.472C173.326 328.158 174.072 327.689 174.072 327.689C174.072 327.689 170.876 330.018 170.383 332.365C169.889 334.713 172.405 331.18 174.722 330.62C176.534 330.181 178.382 330.169 178.984 328.152L181.788 324.836L179.062 323.145H179.068Z" fill="url(#paint2_linear_1253_17749)"/>
<path d="M183.178 443.064L199.542 441.921L198.916 434.566H193.71C188.769 435.709 183.178 443.064 183.178 443.064Z" fill="url(#paint3_linear_1253_17749)"/>
<path d="M193.712 434.567H198.918L198.395 429.783L192.562 428.639L193.712 434.567Z" fill="url(#paint4_linear_1253_17749)"/>
<path d="M238.514 452.046L240.133 462.741C240.133 462.741 243.07 465.275 245.953 460.568L243.19 448.796L238.514 452.046Z" fill="url(#paint5_linear_1253_17749)"/>
<path d="M234.59 477.926C234.59 477.926 244.527 477.354 247 465.04L245.953 460.562C243.076 465.269 240.133 462.735 240.133 462.735L240.103 462.789C240.103 462.789 240.067 462.849 240.043 462.885C239.405 464.023 235.3 471.582 234.584 477.926H234.59Z" fill="url(#paint6_linear_1253_17749)"/>
<path d="M183.781 394.537C183.781 403.33 191.359 431.455 191.359 431.455L195.193 431.25L197.257 431.142L199.448 431.028C199.448 431.028 197.54 406.959 201.548 397.022C205.497 387.242 223.89 369.132 224.461 368.566C224.263 368.982 218.214 381.44 221.217 397.402C224.275 413.646 238.599 456.432 238.599 456.432L243.203 454.897L245.478 454.139C245.478 454.139 239.369 406.953 247.392 383.27C252.49 368.211 254.007 354.001 254.428 345.647C254.669 340.863 254.554 337.998 254.554 337.998L210.33 337.613C210.33 337.613 209.668 340.098 206.448 346.261C204.467 350.047 201.512 355.229 197.149 362.066C185.689 380.02 183.775 385.756 183.775 394.537H183.781Z" fill="url(#paint7_linear_1253_17749)"/>
<path d="M195.74 407.958C195.848 414.537 197.022 428.44 197.251 431.142L199.441 431.028C199.441 431.028 197.534 406.959 201.542 397.023C205.49 387.242 223.883 369.132 224.455 368.567L226.465 359.96C226.465 359.96 212.899 371.137 204.732 381.88C196.565 392.623 195.608 400.652 195.728 407.958H195.74Z" fill="url(#paint8_linear_1253_17749)"/>
<path d="M232.953 388.043C230.648 400.766 241.09 445.978 243.209 454.897L245.484 454.139C245.484 454.139 239.375 406.953 247.398 383.27C252.496 368.211 254.012 354.001 254.434 345.647C254.674 340.863 254.56 337.998 254.56 337.998L210.335 337.613C210.335 337.613 209.673 340.098 206.453 346.261C209.535 346.303 218.611 346.797 230.347 350.793C244.912 355.765 235.517 373.905 232.953 388.049V388.043Z" fill="url(#paint9_linear_1253_17749)"/>
<path d="M177.947 322.711L181.529 326.912C181.529 326.912 183.918 326.719 187.854 325.474C192.892 323.879 200.469 320.568 208.829 313.731C208.829 313.731 209.563 321.754 206.969 337.655C206.668 339.503 207.74 341.327 209.365 342.253C213.71 344.727 223.49 348.597 239.049 345.534C243.394 344.679 248.185 343.289 253.427 341.164C255.54 340.309 256.773 338.089 256.382 335.838L256.214 334.887L255.612 331.408L255.16 328.796C256.244 328.543 257.183 328.068 257.995 327.411C265.976 320.935 261.835 296.62 259.753 290.12C258.693 286.81 256.701 281.7 252.356 277.451C251.646 276.759 250.893 276.073 250.117 275.417C245.338 271.39 239.283 268.164 232.536 267.701C231.874 267.653 231.212 267.635 230.562 267.641C221.282 267.665 214.083 272.359 209.678 276.681C209.678 276.681 209.678 276.681 209.666 276.681C207.655 278.661 206.229 280.557 205.453 281.887C202.871 286.328 204.309 300.225 198.862 305.1C193.415 309.97 180.523 319.431 177.941 322.723L177.947 322.711Z" fill="url(#paint10_linear_1253_17749)"/>
<path style="mix-blend-mode:overlay" d="M187.85 325.472H187.862C192.899 323.877 200.477 320.567 208.837 313.73C208.758 309.192 207.464 304.66 207.464 304.66C207.681 314.759 187.844 325.478 187.844 325.478L187.85 325.472Z" fill="url(#paint11_linear_1253_17749)"/>
<path d="M275.492 337.613C275.624 337.625 275.678 337.625 275.666 337.613C275.642 337.595 275.588 337.595 275.492 337.613Z" fill="url(#paint12_linear_1253_17749)"/>
<path style="mix-blend-mode:overlay" d="M210.616 328.628C212.049 326.046 217.02 324.24 217.02 324.24L217.785 324.138V328.014C217.785 328.014 244.116 331.354 255.166 328.796L255.618 331.408L256.22 334.887L256.388 335.838C256.779 338.083 255.546 340.31 253.433 341.164C248.191 343.283 243.4 344.679 239.054 345.534C239.054 345.534 243.274 342.88 244.814 335.519C237.941 335.471 228.462 334.737 217.785 332.034L217.213 331.089C217.213 331.089 214.252 330.65 211.766 332.467C209.28 334.285 209.184 331.222 210.622 328.646L210.616 328.628Z" fill="url(#paint13_linear_1253_17749)"/>
<path d="M208.968 331.017C209.618 331.589 211.538 327.647 213.657 327.719C214.812 327.761 216.498 327.328 217.786 326.93V322.621C216.347 322.91 213.043 323.644 211.767 324.643C210.118 325.925 208.33 330.445 208.968 331.017Z" fill="url(#paint14_linear_1253_17749)"/>
<path d="M217.779 322.325V328.013C217.779 328.013 244.111 331.353 255.161 328.795C255.329 328.753 255.486 328.717 255.642 328.663C255.697 328.651 255.745 328.633 255.799 328.615C255.889 328.584 255.979 328.554 256.064 328.518C256.148 328.488 256.238 328.458 256.317 328.416C256.443 328.368 256.569 328.314 256.69 328.247C256.852 328.175 257.003 328.085 257.153 327.995C257.322 327.898 257.478 327.796 257.635 327.688C257.761 327.597 257.881 327.507 258.002 327.405C265.982 320.929 261.842 296.614 259.759 290.113C258.7 286.803 256.708 281.693 252.362 277.444C251.652 276.752 250.9 276.066 250.123 275.41C242.143 282.717 243.142 295.921 243.142 295.921C243.142 295.921 245.435 305.473 244.147 315.933C244.147 315.933 226.669 318.606 217.785 322.331L217.779 322.325Z" fill="url(#paint15_linear_1253_17749)"/>
<path style="mix-blend-mode:overlay" d="M209.686 276.662C217.257 272.738 230.347 273.039 230.347 273.039L230.57 267.622C221.289 267.646 214.091 272.34 209.686 276.662Z" fill="url(#paint16_linear_1253_17749)"/>
<path d="M227.331 245.065C227.331 245.065 229.335 243.061 232.013 245.065C234.692 247.069 235.913 250.788 234.674 252.516C233.434 254.243 232.778 256.145 232.778 256.145L225.664 265.588C225.664 265.588 223.461 260.918 220.078 260.382C215.998 259.738 213.994 249.212 219.723 245.582C225.453 241.953 227.337 245.065 227.337 245.065H227.331Z" fill="url(#paint17_linear_1253_17749)"/>
<path d="M225.663 268.08C225.663 268.08 220.216 276.38 225.663 276C231.11 275.621 232.542 267.689 232.542 267.689L230.773 260.906L222.154 254.219C225.663 264.583 225.663 268.08 225.663 268.08Z" fill="url(#paint18_linear_1253_17749)"/>
<path style="mix-blend-mode:overlay" d="M222.149 254.225L227.806 258.613C227.036 261.64 226.964 264.324 227.951 267.472C228.516 269.278 229.263 270.963 230.129 272.642C230.196 272.774 230.268 272.907 230.334 273.039C229.281 274.562 227.77 275.85 225.651 276C220.205 276.38 225.651 268.08 225.651 268.08C225.651 268.08 225.651 264.583 222.143 254.219L222.149 254.225Z" fill="url(#paint19_linear_1253_17749)"/>
<path d="M222.149 254.226C222.149 254.226 225.326 261.388 228.769 262.634C229.407 262.863 230.033 262.911 230.635 262.808C233.265 262.381 235.287 259.167 234.589 256.519C233.987 254.244 232.495 251.451 231.652 249.983C231.333 249.417 231.11 249.05 231.062 248.978C231.14 249.266 232.368 254.154 222.143 254.22L222.149 254.226Z" fill="url(#paint20_linear_1253_17749)"/>
<path style="mix-blend-mode:overlay" d="M225.784 253.937C225.796 254.105 227.354 261.039 230.641 262.802C230.039 262.905 229.407 262.863 228.775 262.628C225.338 261.382 222.154 254.22 222.154 254.22C223.581 254.208 224.772 254.105 225.79 253.931L225.784 253.937Z" fill="url(#paint21_linear_1253_17749)"/>
<path style="mix-blend-mode:overlay" d="M240.24 316.59C242.618 316.169 244.14 315.928 244.14 315.928C244.845 310.228 244.484 304.812 244.008 301.044C243.779 308.513 240.234 316.584 240.234 316.584L240.24 316.59Z" fill="url(#paint22_linear_1253_17749)"/>
<defs>
<linearGradient id="paint0_linear_1253_17749" x1="240.698" y1="377.892" x2="338.549" y2="162.009" gradientUnits="userSpaceOnUse">
<stop stop-color="white" stop-opacity="0"/>
<stop offset="0.12" stop-color="#FDFDFD" stop-opacity="0.09"/>
<stop offset="0.38" stop-color="#F8F8F8" stop-opacity="0.33"/>
<stop offset="0.74" stop-color="#F1F1F1" stop-opacity="0.71"/>
<stop offset="1" stop-color="#ECECEC"/>
</linearGradient>
<linearGradient id="paint1_linear_1253_17749" x1="246.18" y1="514.496" x2="246.18" y2="439.582" gradientUnits="userSpaceOnUse">
<stop stop-color="white"/>
<stop offset="0.42" stop-color="#FCFCFC"/>
<stop offset="0.61" stop-color="#F5F5F5"/>
<stop offset="0.76" stop-color="#E8E8E8"/>
<stop offset="0.89" stop-color="#D6D6D6"/>
<stop offset="1" stop-color="#BEBEBE"/>
</linearGradient>
<linearGradient id="paint2_linear_1253_17749" x1="181.794" y1="328.158" x2="170.323" y2="328.158" gradientUnits="userSpaceOnUse">
<stop stop-color="#EE8E7E"/>
<stop offset="1" stop-color="#E45C42"/>
</linearGradient>
<linearGradient id="paint3_linear_1253_17749" x1="199.536" y1="438.815" x2="183.178" y2="438.815" gradientUnits="userSpaceOnUse">
<stop stop-color="#182E67"/>
<stop offset="1" stop-color="#000B57"/>
</linearGradient>
<linearGradient id="paint4_linear_1253_17749" x1="198.918" y1="431.6" x2="192.562" y2="431.6" gradientUnits="userSpaceOnUse">
<stop stop-color="#EE8E7E"/>
<stop offset="1" stop-color="#E45C42"/>
</linearGradient>
<linearGradient id="paint5_linear_1253_17749" x1="245.953" y1="456.109" x2="238.514" y2="456.109" gradientUnits="userSpaceOnUse">
<stop stop-color="#EE8E7E"/>
<stop offset="1" stop-color="#E45C42"/>
</linearGradient>
<linearGradient id="paint6_linear_1253_17749" x1="247" y1="469.247" x2="234.59" y2="469.247" gradientUnits="userSpaceOnUse">
<stop stop-color="#404F7E"/>
<stop offset="1" stop-color="#000B57"/>
</linearGradient>
<linearGradient id="paint7_linear_1253_17749" x1="189.698" y1="358.858" x2="230.961" y2="390.95" gradientUnits="userSpaceOnUse">
<stop stop-color="#404F7E"/>
<stop offset="1" stop-color="#000B57"/>
</linearGradient>
<linearGradient id="paint8_linear_1253_17749" x1="235.613" y1="377.432" x2="210.931" y2="397.113" gradientUnits="userSpaceOnUse">
<stop stop-color="#001244"/>
<stop offset="1" stop-color="#000030"/>
</linearGradient>
<linearGradient id="paint9_linear_1253_17749" x1="264.461" y1="366.737" x2="197.359" y2="420.224" gradientUnits="userSpaceOnUse">
<stop stop-color="#001244"/>
<stop offset="1" stop-color="#000030"/>
</linearGradient>
<linearGradient id="paint10_linear_1253_17749" x1="181.3" y1="304.589" x2="252.747" y2="308.411" gradientUnits="userSpaceOnUse">
<stop stop-color="#E5562A"/>
<stop offset="1" stop-color="#E03D0C"/>
</linearGradient>
<linearGradient id="paint11_linear_1253_17749" x1="203.227" y1="303.378" x2="195.849" y2="327.88" gradientUnits="userSpaceOnUse">
<stop stop-color="#001244"/>
<stop offset="1" stop-color="#000030"/>
</linearGradient>
<linearGradient id="paint12_linear_1253_17749" x1="275.63" y1="337.577" x2="275.576" y2="337.613" gradientUnits="userSpaceOnUse">
<stop stop-color="#404F7E"/>
<stop offset="1" stop-color="#000B57"/>
</linearGradient>
<linearGradient id="paint13_linear_1253_17749" x1="236.406" y1="323.145" x2="230.448" y2="342.934" gradientUnits="userSpaceOnUse">
<stop stop-color="#001244"/>
<stop offset="1" stop-color="#000030"/>
</linearGradient>
<linearGradient id="paint14_linear_1253_17749" x1="217.78" y1="326.852" x2="208.83" y2="326.852" gradientUnits="userSpaceOnUse">
<stop stop-color="#EE8E7E"/>
<stop offset="1" stop-color="#E45C42"/>
</linearGradient>
<linearGradient id="paint15_linear_1253_17749" x1="247.909" y1="294.447" x2="239.452" y2="322.53" gradientUnits="userSpaceOnUse">
<stop stop-color="#E5562A" stop-opacity="0"/>
<stop offset="1" stop-color="#E45124"/>
</linearGradient>
<linearGradient id="paint16_linear_1253_17749" x1="230.57" y1="272.148" x2="209.686" y2="272.148" gradientUnits="userSpaceOnUse">
<stop stop-color="#001244"/>
<stop offset="1" stop-color="#000030"/>
</linearGradient>
<linearGradient id="paint17_linear_1253_17749" x1="235.161" y1="254.707" x2="216.16" y2="254.707" gradientUnits="userSpaceOnUse">
<stop stop-color="#001244"/>
<stop offset="1" stop-color="#000030"/>
</linearGradient>
<linearGradient id="paint18_linear_1253_17749" x1="227.986" y1="271.848" x2="226.837" y2="261.387" gradientUnits="userSpaceOnUse">
<stop stop-color="#EE8E7E"/>
<stop offset="1" stop-color="#E45C42"/>
</linearGradient>
<linearGradient id="paint19_linear_1253_17749" x1="226.608" y1="271.998" x2="225.459" y2="261.538" gradientUnits="userSpaceOnUse">
<stop stop-color="#001244"/>
<stop offset="1" stop-color="#000030"/>
</linearGradient>
<linearGradient id="paint20_linear_1253_17749" x1="230.677" y1="262.02" x2="226.885" y2="251" gradientUnits="userSpaceOnUse">
<stop stop-color="#EE8E7E"/>
<stop offset="1" stop-color="#E45C42"/>
</linearGradient>
<linearGradient id="paint21_linear_1253_17749" x1="227.908" y1="262.917" x2="224.128" y2="251.945" gradientUnits="userSpaceOnUse">
<stop stop-color="#001244"/>
<stop offset="1" stop-color="#000030"/>
</linearGradient>
<linearGradient id="paint22_linear_1253_17749" x1="246.127" y1="301.682" x2="241.522" y2="316.975" gradientUnits="userSpaceOnUse">
<stop stop-color="#001244"/>
<stop offset="1" stop-color="#000030"/>
</linearGradient>
</defs>
</svg>
