<svg width="234" height="46" viewBox="0 0 234 46" fill="none" xmlns="http://www.w3.org/2000/svg">
<rect x="22.6373" width="22.6374" height="22.6374" fill="#165DE8"/>
<rect x="29.6028" y="29.6028" width="15.672" height="15.672" fill="#165DE8"/>
<rect y="22.6375" width="22.6374" height="22.6374" fill="#165DE8"/>
<path d="M54.4561 4.77387C54.4561 3.50084 54.8958 2.42462 55.7752 1.54523C56.6545 0.657453 57.7308 0.213567 59.0038 0.213567C60.2768 0.213567 61.353 0.657453 62.2324 1.54523C63.1202 2.42462 63.5641 3.50084 63.5641 4.77387C63.5641 6.03853 63.1202 7.11474 62.2324 8.00251C61.353 8.89028 60.2768 9.33417 59.0038 9.33417C57.7308 9.33417 56.6545 8.89028 55.7752 8.00251C54.8958 7.10636 54.4561 6.03015 54.4561 4.77387ZM62.3958 4.77387C62.3958 3.80234 62.0691 2.98995 61.4159 2.33668C60.7793 1.67504 59.9753 1.34422 59.0038 1.34422C58.0406 1.34422 57.2324 1.67504 56.5792 2.33668C55.9343 2.99832 55.6118 3.81072 55.6118 4.77387C55.6118 5.72864 55.9343 6.54104 56.5792 7.21106C57.2324 7.86432 58.0406 8.19095 59.0038 8.19095C59.9753 8.19095 60.7793 7.86432 61.4159 7.21106C62.0691 6.54104 62.3958 5.72864 62.3958 4.77387Z" fill="#050722"/>
<path d="M65.8639 3.42965H64.6076L65.4242 0.376884H66.3664L65.8639 3.42965Z" fill="#050722"/>
<path d="M72.3831 3.61809L69.167 8.12814H72.5087V9.17085H67.672V8.44221L70.8756 3.93216H67.7977V2.88945H72.3831V3.61809Z" fill="#050722"/>
<path d="M77.2789 2.72613C78.1583 2.72613 78.9078 3.04858 79.5276 3.69347C80.1474 4.33836 80.4573 5.11725 80.4573 6.03015C80.4573 6.95142 80.1474 7.73451 79.5276 8.3794C78.9162 9.01591 78.1666 9.33417 77.2789 9.33417C76.2403 9.33417 75.4489 8.9196 74.9045 8.09045V9.17085H73.8115V0.376884H74.9045V3.96985C75.4489 3.1407 76.2403 2.72613 77.2789 2.72613ZM77.1407 8.27889C77.7688 8.27889 78.2964 8.06533 78.7236 7.63819C79.1507 7.1943 79.3643 6.65829 79.3643 6.03015C79.3643 5.39363 79.1507 4.86181 78.7236 4.43467C78.2964 3.99916 77.7688 3.78141 77.1407 3.78141C76.5042 3.78141 75.9723 3.99916 75.5452 4.43467C75.1181 4.86181 74.9045 5.39363 74.9045 6.03015C74.9045 6.65829 75.1181 7.1943 75.5452 7.63819C75.9723 8.06533 76.5042 8.27889 77.1407 8.27889Z" fill="#050722"/>
<path d="M87.7916 6.53266H82.5278C82.6366 7.08543 82.8921 7.52094 83.2941 7.8392C83.6961 8.14908 84.1986 8.30402 84.8016 8.30402C85.6308 8.30402 86.2338 7.99832 86.6107 7.38693L87.5403 7.91457C86.9206 8.86097 85.9993 9.33417 84.7765 9.33417C83.7882 9.33417 82.9758 9.02429 82.3393 8.40452C81.7196 7.76801 81.4097 6.97655 81.4097 6.03015C81.4097 5.07538 81.7154 4.28811 82.3268 3.66834C82.9381 3.0402 83.7296 2.72613 84.7011 2.72613C85.6224 2.72613 86.372 3.05276 86.9499 3.70603C87.5361 4.34255 87.8293 5.12144 87.8293 6.04271C87.8293 6.20184 87.8167 6.36516 87.7916 6.53266ZM84.7011 3.75628C84.1232 3.75628 83.6375 3.9196 83.2438 4.24623C82.8586 4.57286 82.6199 5.01675 82.5278 5.57789H86.7237C86.6316 5 86.4013 4.55193 86.0328 4.23367C85.6643 3.91541 85.2204 3.75628 84.7011 3.75628Z" fill="#050722"/>
<path d="M91.2967 5.92965L94.3997 9.17085H93.0429L90.1786 6.19347V9.17085H89.0856V0.376884H90.1786V5.66583L92.8922 2.88945H94.2992L91.2967 5.92965Z" fill="#050722"/>
<path d="M95.9689 1.74623C95.7595 1.74623 95.5836 1.67504 95.4413 1.53266C95.2989 1.39028 95.2277 1.21859 95.2277 1.01759C95.2277 0.816583 95.2989 0.644891 95.4413 0.502512C95.5836 0.351759 95.7595 0.276382 95.9689 0.276382C96.1699 0.276382 96.3416 0.351759 96.484 0.502512C96.6263 0.644891 96.6975 0.816583 96.6975 1.01759C96.6975 1.21859 96.6263 1.39028 96.484 1.53266C96.3416 1.67504 96.1699 1.74623 95.9689 1.74623ZM96.5091 9.17085H95.4161V2.88945H96.5091V9.17085Z" fill="#050722"/>
<path d="M99.1065 4.58543C99.1065 4.98744 99.521 5.30151 100.35 5.52764C100.66 5.59464 100.92 5.66583 101.129 5.74121C101.347 5.80821 101.581 5.9129 101.833 6.05528C102.092 6.19766 102.289 6.3861 102.423 6.6206C102.557 6.85511 102.624 7.13149 102.624 7.44975C102.624 8.01926 102.402 8.47571 101.958 8.81909C101.514 9.16248 100.953 9.33417 100.275 9.33417C99.6718 9.33417 99.1483 9.20436 98.7044 8.94472C98.2689 8.67672 97.959 8.31658 97.7748 7.86432L98.717 7.32412C98.8175 7.62563 99.006 7.86432 99.2823 8.0402C99.5587 8.21608 99.8895 8.30402 100.275 8.30402C100.652 8.30402 100.953 8.23283 101.179 8.09045C101.405 7.94807 101.519 7.73451 101.519 7.44975C101.519 7.02261 101.104 6.71273 100.275 6.5201C99.9984 6.44472 99.789 6.3861 99.6467 6.34422C99.5043 6.30235 99.3075 6.22697 99.0562 6.11809C98.8133 6.00921 98.6291 5.89615 98.5034 5.77889C98.3778 5.65327 98.2606 5.48995 98.1517 5.28894C98.0512 5.07956 98.0009 4.84925 98.0009 4.59799C98.0009 4.0536 98.2103 3.60553 98.6291 3.25377C99.0562 2.90201 99.588 2.72613 100.225 2.72613C100.735 2.72613 101.188 2.84338 101.581 3.07789C101.983 3.30402 102.285 3.62228 102.486 4.03266L101.569 4.54774C101.343 4.01172 100.895 3.74372 100.225 3.74372C99.9063 3.74372 99.6383 3.8191 99.4205 3.96985C99.2111 4.1206 99.1065 4.3258 99.1065 4.58543Z" fill="#050722"/>
<path d="M107.09 2.88945V3.94472H105.419V7.34925C105.419 7.65913 105.478 7.88107 105.595 8.01507C105.72 8.1407 105.909 8.20771 106.16 8.21608C106.411 8.21608 106.721 8.20771 107.09 8.19095V9.17085C106.127 9.29648 105.423 9.21692 104.979 8.93216C104.544 8.6474 104.326 8.11977 104.326 7.34925V3.94472H103.082V2.88945H104.326V1.45729L105.419 1.13065V2.88945H107.09Z" fill="#050722"/>
<path d="M113.366 8.3794C112.73 9.01591 111.947 9.33417 111.017 9.33417C110.087 9.33417 109.304 9.01591 108.668 8.3794C108.031 7.74288 107.713 6.9598 107.713 6.03015C107.713 5.1005 108.031 4.31742 108.668 3.6809C109.304 3.04439 110.087 2.72613 111.017 2.72613C111.947 2.72613 112.73 3.04439 113.366 3.6809C114.011 4.3258 114.334 5.10888 114.334 6.03015C114.334 6.95142 114.011 7.73451 113.366 8.3794ZM111.017 8.26633C111.645 8.26633 112.173 8.05276 112.6 7.62563C113.027 7.19849 113.241 6.66667 113.241 6.03015C113.241 5.39363 113.027 4.86181 112.6 4.43467C112.173 4.00754 111.645 3.79397 111.017 3.79397C110.397 3.79397 109.874 4.00754 109.447 4.43467C109.02 4.86181 108.806 5.39363 108.806 6.03015C108.806 6.66667 109.02 7.19849 109.447 7.62563C109.874 8.05276 110.397 8.26633 111.017 8.26633Z" fill="#050722"/>
<path d="M118.75 2.72613C119.487 2.72613 120.078 2.96064 120.522 3.42965C120.966 3.89028 121.187 4.51843 121.187 5.31407V9.17085H120.094V5.37688C120.094 4.87437 119.956 4.48074 119.68 4.19598C119.404 3.91122 119.022 3.76884 118.537 3.76884C117.976 3.76884 117.532 3.94472 117.205 4.29648C116.878 4.63987 116.715 5.15494 116.715 5.84171V9.17085H115.622V2.88945H116.715V3.79397C117.151 3.08208 117.829 2.72613 118.75 2.72613Z" fill="#050722"/>
<path d="M132.475 9.17085H131.181L129.208 5.80402H127.135V9.17085H125.967V0.376884H129.485C130.238 0.376884 130.883 0.644891 131.419 1.1809C131.955 1.70854 132.223 2.34925 132.223 3.10302C132.223 3.67253 132.052 4.19179 131.708 4.6608C131.356 5.13819 130.921 5.46901 130.402 5.65327L132.475 9.17085ZM129.485 1.46985H127.135V4.74874H129.485C129.92 4.74874 130.289 4.58961 130.59 4.27136C130.9 3.9531 131.055 3.56365 131.055 3.10302C131.055 2.64238 130.9 2.25712 130.59 1.94724C130.289 1.62898 129.92 1.46985 129.485 1.46985Z" fill="#050722"/>
<path d="M139.245 6.53266H133.981C134.09 7.08543 134.346 7.52094 134.748 7.8392C135.15 8.14908 135.652 8.30402 136.255 8.30402C137.084 8.30402 137.687 7.99832 138.064 7.38693L138.994 7.91457C138.374 8.86097 137.453 9.33417 136.23 9.33417C135.242 9.33417 134.429 9.02429 133.793 8.40452C133.173 7.76801 132.863 6.97655 132.863 6.03015C132.863 5.07538 133.169 4.28811 133.78 3.66834C134.392 3.0402 135.183 2.72613 136.155 2.72613C137.076 2.72613 137.826 3.05276 138.403 3.70603C138.99 4.34255 139.283 5.12144 139.283 6.04271C139.283 6.20184 139.27 6.36516 139.245 6.53266ZM136.155 3.75628C135.577 3.75628 135.091 3.9196 134.697 4.24623C134.312 4.57286 134.073 5.01675 133.981 5.57789H138.177C138.085 5 137.855 4.55193 137.486 4.23367C137.118 3.91541 136.674 3.75628 136.155 3.75628Z" fill="#050722"/>
<path d="M141.236 4.58543C141.236 4.98744 141.651 5.30151 142.48 5.52764C142.79 5.59464 143.049 5.66583 143.259 5.74121C143.476 5.80821 143.711 5.9129 143.962 6.05528C144.222 6.19766 144.419 6.3861 144.553 6.6206C144.687 6.85511 144.754 7.13149 144.754 7.44975C144.754 8.01926 144.532 8.47571 144.088 8.81909C143.644 9.16248 143.083 9.33417 142.404 9.33417C141.801 9.33417 141.278 9.20436 140.834 8.94472C140.399 8.67672 140.089 8.31658 139.904 7.86432L140.847 7.32412C140.947 7.62563 141.136 7.86432 141.412 8.0402C141.688 8.21608 142.019 8.30402 142.404 8.30402C142.781 8.30402 143.083 8.23283 143.309 8.09045C143.535 7.94807 143.648 7.73451 143.648 7.44975C143.648 7.02261 143.234 6.71273 142.404 6.5201C142.128 6.44472 141.919 6.3861 141.776 6.34422C141.634 6.30235 141.437 6.22697 141.186 6.11809C140.943 6.00921 140.759 5.89615 140.633 5.77889C140.507 5.65327 140.39 5.48995 140.281 5.28894C140.181 5.07956 140.131 4.84925 140.131 4.59799C140.131 4.0536 140.34 3.60553 140.759 3.25377C141.186 2.90201 141.718 2.72613 142.354 2.72613C142.865 2.72613 143.317 2.84338 143.711 3.07789C144.113 3.30402 144.414 3.62228 144.615 4.03266L143.698 4.54774C143.472 4.01172 143.024 3.74372 142.354 3.74372C142.036 3.74372 141.768 3.8191 141.55 3.96985C141.341 4.1206 141.236 4.3258 141.236 4.58543Z" fill="#050722"/>
<path d="M149.515 2.72613C150.394 2.72613 151.144 3.04858 151.764 3.69347C152.384 4.33836 152.693 5.11725 152.693 6.03015C152.693 6.95142 152.384 7.73451 151.764 8.3794C151.152 9.01591 150.403 9.33417 149.515 9.33417C148.477 9.33417 147.685 8.9196 147.141 8.09045V11.6834H146.048V2.88945H147.141V3.96985C147.685 3.1407 148.477 2.72613 149.515 2.72613ZM149.377 8.27889C150.005 8.27889 150.533 8.06533 150.96 7.63819C151.387 7.1943 151.6 6.65829 151.6 6.03015C151.6 5.39363 151.387 4.86181 150.96 4.43467C150.533 3.99916 150.005 3.78141 149.377 3.78141C148.74 3.78141 148.208 3.99916 147.781 4.43467C147.354 4.86181 147.141 5.39363 147.141 6.03015C147.141 6.65829 147.354 7.1943 147.781 7.63819C148.208 8.06533 148.74 8.27889 149.377 8.27889Z" fill="#050722"/>
<path d="M158.332 6.21859V2.88945H159.425V9.17085H158.332V8.26633C157.896 8.97822 157.218 9.33417 156.297 9.33417C155.56 9.33417 154.969 9.10385 154.525 8.64322C154.081 8.1742 153.859 7.54188 153.859 6.74623V2.88945H154.952V6.68342C154.952 7.18593 155.091 7.57956 155.367 7.86432C155.643 8.14908 156.024 8.29146 156.51 8.29146C157.071 8.29146 157.515 8.11977 157.842 7.77638C158.168 7.42462 158.332 6.90536 158.332 6.21859Z" fill="#050722"/>
<path d="M164.556 2.72613C165.435 2.72613 166.185 3.04858 166.805 3.69347C167.425 4.33836 167.734 5.11725 167.734 6.03015C167.734 6.95142 167.425 7.73451 166.805 8.3794C166.193 9.01591 165.444 9.33417 164.556 9.33417C163.518 9.33417 162.726 8.9196 162.182 8.09045V9.17085H161.089V0.376884H162.182V3.96985C162.726 3.1407 163.518 2.72613 164.556 2.72613ZM164.418 8.27889C165.046 8.27889 165.574 8.06533 166.001 7.63819C166.428 7.1943 166.641 6.65829 166.641 6.03015C166.641 5.39363 166.428 4.86181 166.001 4.43467C165.574 3.99916 165.046 3.78141 164.418 3.78141C163.781 3.78141 163.25 3.99916 162.822 4.43467C162.395 4.86181 162.182 5.39363 162.182 6.03015C162.182 6.65829 162.395 7.1943 162.822 7.63819C163.25 8.06533 163.781 8.27889 164.418 8.27889Z" fill="#050722"/>
<path d="M170.132 9.17085H169.039V0H170.132V9.17085Z" fill="#050722"/>
<path d="M172.352 1.74623C172.142 1.74623 171.967 1.67504 171.824 1.53266C171.682 1.39028 171.611 1.21859 171.611 1.01759C171.611 0.816583 171.682 0.644891 171.824 0.502512C171.967 0.351759 172.142 0.276382 172.352 0.276382C172.553 0.276382 172.724 0.351759 172.867 0.502512C173.009 0.644891 173.08 0.816583 173.08 1.01759C173.08 1.21859 173.009 1.39028 172.867 1.53266C172.724 1.67504 172.553 1.74623 172.352 1.74623ZM172.892 9.17085H171.799V2.88945H172.892V9.17085Z" fill="#050722"/>
<path d="M176.77 5.92965L179.873 9.17085H178.517L175.652 6.19347V9.17085H174.559V0.376884H175.652V5.66583L178.366 2.88945H179.773L176.77 5.92965Z" fill="#050722"/>
<path d="M185.514 3.96985V2.88945H186.607V9.17085H185.514V8.09045C184.978 8.9196 184.187 9.33417 183.14 9.33417C182.252 9.33417 181.503 9.01591 180.891 8.3794C180.271 7.73451 179.962 6.95142 179.962 6.03015C179.962 5.11725 180.271 4.33836 180.891 3.69347C181.511 3.04858 182.26 2.72613 183.14 2.72613C184.187 2.72613 184.978 3.1407 185.514 3.96985ZM183.278 8.27889C183.915 8.27889 184.446 8.06533 184.874 7.63819C185.301 7.1943 185.514 6.65829 185.514 6.03015C185.514 5.39363 185.301 4.86181 184.874 4.43467C184.446 3.99916 183.915 3.78141 183.278 3.78141C182.65 3.78141 182.122 3.99916 181.695 4.43467C181.268 4.86181 181.054 5.39363 181.054 6.03015C181.054 6.65829 181.268 7.1943 181.695 7.63819C182.122 8.06533 182.65 8.27889 183.278 8.27889Z" fill="#050722"/>
<path d="M189.193 4.58543C189.193 4.98744 189.608 5.30151 190.437 5.52764C190.747 5.59464 191.006 5.66583 191.216 5.74121C191.433 5.80821 191.668 5.9129 191.919 6.05528C192.179 6.19766 192.376 6.3861 192.51 6.6206C192.644 6.85511 192.711 7.13149 192.711 7.44975C192.711 8.01926 192.489 8.47571 192.045 8.81909C191.601 9.16248 191.04 9.33417 190.361 9.33417C189.758 9.33417 189.235 9.20436 188.791 8.94472C188.356 8.67672 188.046 8.31658 187.861 7.86432L188.804 7.32412C188.904 7.62563 189.093 7.86432 189.369 8.0402C189.645 8.21608 189.976 8.30402 190.361 8.30402C190.738 8.30402 191.04 8.23283 191.266 8.09045C191.492 7.94807 191.605 7.73451 191.605 7.44975C191.605 7.02261 191.191 6.71273 190.361 6.5201C190.085 6.44472 189.876 6.3861 189.733 6.34422C189.591 6.30235 189.394 6.22697 189.143 6.11809C188.9 6.00921 188.716 5.89615 188.59 5.77889C188.464 5.65327 188.347 5.48995 188.238 5.28894C188.138 5.07956 188.088 4.84925 188.088 4.59799C188.088 4.0536 188.297 3.60553 188.716 3.25377C189.143 2.90201 189.675 2.72613 190.311 2.72613C190.822 2.72613 191.274 2.84338 191.668 3.07789C192.07 3.30402 192.372 3.62228 192.573 4.03266L191.655 4.54774C191.429 4.01172 190.981 3.74372 190.311 3.74372C189.993 3.74372 189.725 3.8191 189.507 3.96985C189.298 4.1206 189.193 4.3258 189.193 4.58543Z" fill="#050722"/>
<path d="M194.496 1.74623C194.287 1.74623 194.111 1.67504 193.969 1.53266C193.826 1.39028 193.755 1.21859 193.755 1.01759C193.755 0.816583 193.826 0.644891 193.969 0.502512C194.111 0.351759 194.287 0.276382 194.496 0.276382C194.697 0.276382 194.869 0.351759 195.011 0.502512C195.154 0.644891 195.225 0.816583 195.225 1.01759C195.225 1.21859 195.154 1.39028 195.011 1.53266C194.869 1.67504 194.697 1.74623 194.496 1.74623ZM195.036 9.17085H193.943V2.88945H195.036V9.17085Z" fill="#050722"/>
<path d="M54.9209 24.8744V16.0804H56.0892V24.8744H54.9209Z" fill="#050722"/>
<path d="M63.0636 19.6734V18.593H64.1566V27.3869H63.0636V23.794C62.5276 24.6231 61.7362 25.0377 60.6893 25.0377C59.8015 25.0377 59.0519 24.7194 58.4405 24.0829C57.8208 23.438 57.5109 22.6549 57.5109 21.7337C57.5109 20.8208 57.8208 20.0419 58.4405 19.397C59.0603 18.7521 59.8099 18.4296 60.6893 18.4296C61.7362 18.4296 62.5276 18.8442 63.0636 19.6734ZM60.8275 23.9824C61.464 23.9824 61.9958 23.7688 62.4229 23.3417C62.8501 22.8978 63.0636 22.3618 63.0636 21.7337C63.0636 21.0972 62.8501 20.5653 62.4229 20.1382C61.9958 19.7027 61.464 19.4849 60.8275 19.4849C60.1993 19.4849 59.6717 19.7027 59.2445 20.1382C58.8174 20.5653 58.6038 21.0972 58.6038 21.7337C58.6038 22.3618 58.8174 22.8978 59.2445 23.3417C59.6717 23.7688 60.1993 23.9824 60.8275 23.9824Z" fill="#050722"/>
<path d="M69.2296 18.593V19.6482H67.5588V23.0528C67.5588 23.3626 67.6174 23.5846 67.7347 23.7186C67.8603 23.8442 68.0487 23.9112 68.3 23.9196C68.5512 23.9196 68.8611 23.9112 69.2296 23.8945V24.8744C68.2665 25 67.563 24.9204 67.1191 24.6357C66.6836 24.3509 66.4658 23.8233 66.4658 23.0528V19.6482H65.2221V18.593H66.4658V17.1608L67.5588 16.8342V18.593H69.2296Z" fill="#050722"/>
<path d="M71.0764 17.4497C70.867 17.4497 70.6911 17.3786 70.5487 17.2362C70.4063 17.0938 70.3352 16.9221 70.3352 16.7211C70.3352 16.5201 70.4063 16.3484 70.5487 16.206C70.6911 16.0553 70.867 15.9799 71.0764 15.9799C71.2774 15.9799 71.4491 16.0553 71.5914 16.206C71.7338 16.3484 71.805 16.5201 71.805 16.7211C71.805 16.9221 71.7338 17.0938 71.5914 17.2362C71.4491 17.3786 71.2774 17.4497 71.0764 17.4497ZM71.6166 24.8744H70.5236V18.593H71.6166V24.8744Z" fill="#050722"/>
<path d="M74.2139 20.2889C74.2139 20.691 74.6285 21.005 75.4576 21.2312C75.7675 21.2982 76.0272 21.3693 76.2365 21.4447C76.4543 21.5117 76.6888 21.6164 76.9401 21.7588C77.1997 21.9012 77.3965 22.0896 77.5305 22.3241C77.6645 22.5586 77.7315 22.835 77.7315 23.1533C77.7315 23.7228 77.5096 24.1792 77.0657 24.5226C76.6218 24.866 76.0607 25.0377 75.3823 25.0377C74.7793 25.0377 74.2558 24.9079 73.8119 24.6482C73.3764 24.3802 73.0665 24.0201 72.8823 23.5678L73.8245 23.0276C73.925 23.3291 74.1134 23.5678 74.3898 23.7437C74.6662 23.9196 74.997 24.0075 75.3823 24.0075C75.7592 24.0075 76.0607 23.9363 76.2868 23.794C76.5129 23.6516 76.626 23.438 76.626 23.1533C76.626 22.7261 76.2114 22.4162 75.3823 22.2236C75.1059 22.1482 74.8965 22.0896 74.7541 22.0477C74.6117 22.0059 74.4149 21.9305 74.1637 21.8216C73.9208 21.7127 73.7365 21.5997 73.6109 21.4824C73.4853 21.3568 73.368 21.1935 73.2592 20.9925C73.1586 20.7831 73.1084 20.5528 73.1084 20.3015C73.1084 19.7571 73.3178 19.309 73.7365 18.9573C74.1637 18.6055 74.6955 18.4296 75.332 18.4296C75.8429 18.4296 76.2952 18.5469 76.6888 18.7814C77.0908 19.0075 77.3923 19.3258 77.5933 19.7362L76.6762 20.2513C76.4501 19.7152 76.002 19.4472 75.332 19.4472C75.0138 19.4472 74.7458 19.5226 74.528 19.6734C74.3186 19.8241 74.2139 20.0293 74.2139 20.2889Z" fill="#050722"/>
<path d="M84.1553 24.0829C83.5188 24.7194 82.7357 25.0377 81.8061 25.0377C80.8764 25.0377 80.0934 24.7194 79.4568 24.0829C78.8203 23.4464 78.5021 22.6633 78.5021 21.7337C78.5021 20.804 78.8203 20.0209 79.4568 19.3844C80.0934 18.7479 80.8764 18.4296 81.8061 18.4296C82.7357 18.4296 83.5188 18.7479 84.1553 19.3844C84.8002 20.0293 85.1227 20.8124 85.1227 21.7337C85.1227 22.6549 84.8002 23.438 84.1553 24.0829ZM81.8061 23.9698C82.4342 23.9698 82.9619 23.7563 83.389 23.3291C83.8161 22.902 84.0297 22.3702 84.0297 21.7337C84.0297 21.0972 83.8161 20.5653 83.389 20.1382C82.9619 19.7111 82.4342 19.4975 81.8061 19.4975C81.1863 19.4975 80.6629 19.7111 80.2357 20.1382C79.8086 20.5653 79.595 21.0972 79.595 21.7337C79.595 22.3702 79.8086 22.902 80.2357 23.3291C80.6629 23.7563 81.1863 23.9698 81.8061 23.9698Z" fill="#050722"/>
<path d="M91.6121 19.6734V16.0804H92.7051V24.8744H91.6121V23.794C91.0761 24.6231 90.2847 25.0377 89.2378 25.0377C88.35 25.0377 87.6004 24.7194 86.989 24.0829C86.3693 23.438 86.0594 22.6549 86.0594 21.7337C86.0594 20.8208 86.3693 20.0419 86.989 19.397C87.6088 18.7521 88.3584 18.4296 89.2378 18.4296C90.2847 18.4296 91.0761 18.8442 91.6121 19.6734ZM89.376 23.9824C90.0125 23.9824 90.5443 23.7688 90.9714 23.3417C91.3986 22.8978 91.6121 22.3618 91.6121 21.7337C91.6121 21.0972 91.3986 20.5653 90.9714 20.1382C90.5443 19.7027 90.0125 19.4849 89.376 19.4849C88.7478 19.4849 88.2202 19.7027 87.793 20.1382C87.3659 20.5653 87.1523 21.0972 87.1523 21.7337C87.1523 22.3618 87.3659 22.8978 87.793 23.3417C88.2202 23.7688 88.7478 23.9824 89.376 23.9824Z" fill="#050722"/>
<path d="M94.9138 17.4497C94.7044 17.4497 94.5285 17.3786 94.3862 17.2362C94.2438 17.0938 94.1726 16.9221 94.1726 16.7211C94.1726 16.5201 94.2438 16.3484 94.3862 16.206C94.5285 16.0553 94.7044 15.9799 94.9138 15.9799C95.1148 15.9799 95.2865 16.0553 95.4289 16.206C95.5713 16.3484 95.6424 16.5201 95.6424 16.7211C95.6424 16.9221 95.5713 17.0938 95.4289 17.2362C95.2865 17.3786 95.1148 17.4497 94.9138 17.4497ZM95.454 24.8744H94.361V18.593H95.454V24.8744Z" fill="#050722"/>
<path d="M99.6968 23.5176L101.506 18.593H102.674L100.111 25.2638C99.835 25.9757 99.4539 26.5159 98.9682 26.8844C98.4908 27.2613 97.9422 27.4288 97.3224 27.3869V26.3693C98.093 26.428 98.6583 26.0008 99.0184 25.0879L99.1315 24.8492L96.3928 18.593H97.5611L99.6968 23.5176Z" fill="#050722"/>
<path d="M108.643 24.0829C108.006 24.7194 107.223 25.0377 106.294 25.0377C105.364 25.0377 104.581 24.7194 103.945 24.0829C103.308 23.4464 102.99 22.6633 102.99 21.7337C102.99 20.804 103.308 20.0209 103.945 19.3844C104.581 18.7479 105.364 18.4296 106.294 18.4296C107.223 18.4296 108.006 18.7479 108.643 19.3844C109.288 20.0293 109.61 20.8124 109.61 21.7337C109.61 22.6549 109.288 23.438 108.643 24.0829ZM106.294 23.9698C106.922 23.9698 107.45 23.7563 107.877 23.3291C108.304 22.902 108.517 22.3702 108.517 21.7337C108.517 21.0972 108.304 20.5653 107.877 20.1382C107.45 19.7111 106.922 19.4975 106.294 19.4975C105.674 19.4975 105.151 19.7111 104.723 20.1382C104.296 20.5653 104.083 21.0972 104.083 21.7337C104.083 22.3702 104.296 22.902 104.723 23.3291C105.151 23.7563 105.674 23.9698 106.294 23.9698Z" fill="#050722"/>
<path d="M114.181 18.593V19.6482H112.51V23.0528C112.51 23.3626 112.569 23.5846 112.686 23.7186C112.812 23.8442 113 23.9112 113.251 23.9196C113.503 23.9196 113.812 23.9112 114.181 23.8945V24.8744C113.218 25 112.514 24.9204 112.07 24.6357C111.635 24.3509 111.417 23.8233 111.417 23.0528V19.6482H110.173V18.593H111.417V17.1608L112.51 16.8342V18.593H114.181Z" fill="#050722"/>
<path d="M121.077 23.706L123.049 18.593H124.23L121.718 24.8744H120.436L117.924 18.593H119.105L121.077 23.706Z" fill="#050722"/>
<path d="M130.11 19.6734V18.593H131.203V24.8744H130.11V23.794C129.574 24.6231 128.783 25.0377 127.736 25.0377C126.848 25.0377 126.099 24.7194 125.487 24.0829C124.867 23.438 124.558 22.6549 124.558 21.7337C124.558 20.8208 124.867 20.0419 125.487 19.397C126.107 18.7521 126.857 18.4296 127.736 18.4296C128.783 18.4296 129.574 18.8442 130.11 19.6734ZM127.874 23.9824C128.511 23.9824 129.042 23.7688 129.47 23.3417C129.897 22.8978 130.11 22.3618 130.11 21.7337C130.11 21.0972 129.897 20.5653 129.47 20.1382C129.042 19.7027 128.511 19.4849 127.874 19.4849C127.246 19.4849 126.718 19.7027 126.291 20.1382C125.864 20.5653 125.65 21.0972 125.65 21.7337C125.65 22.3618 125.864 22.8978 126.291 23.3417C126.718 23.7688 127.246 23.9824 127.874 23.9824Z" fill="#050722"/>
<path d="M142.784 18.4296C143.496 18.4296 144.065 18.66 144.492 19.1206C144.928 19.5812 145.146 20.1968 145.146 20.9673V24.8744H144.053V21.005C144.053 20.5276 143.927 20.1549 143.676 19.8869C143.433 19.6106 143.098 19.4724 142.671 19.4724C142.185 19.4724 141.804 19.6357 141.528 19.9623C141.26 20.2806 141.126 20.7538 141.126 21.3819V24.8744H140.033V21.005C140.033 20.5276 139.911 20.1549 139.668 19.8869C139.434 19.6106 139.111 19.4724 138.701 19.4724C138.224 19.4724 137.834 19.6399 137.533 19.9749C137.239 20.3015 137.093 20.7705 137.093 21.3819V24.8744H136V18.593H137.093V19.4347C137.52 18.7647 138.144 18.4296 138.965 18.4296C139.811 18.4296 140.426 18.7856 140.811 19.4975C141.247 18.7856 141.904 18.4296 142.784 18.4296Z" fill="#050722"/>
<path d="M151.963 24.0829C151.326 24.7194 150.543 25.0377 149.613 25.0377C148.684 25.0377 147.901 24.7194 147.264 24.0829C146.628 23.4464 146.309 22.6633 146.309 21.7337C146.309 20.804 146.628 20.0209 147.264 19.3844C147.901 18.7479 148.684 18.4296 149.613 18.4296C150.543 18.4296 151.326 18.7479 151.963 19.3844C152.608 20.0293 152.93 20.8124 152.93 21.7337C152.93 22.6549 152.608 23.438 151.963 24.0829ZM149.613 23.9698C150.242 23.9698 150.769 23.7563 151.196 23.3291C151.623 22.902 151.837 22.3702 151.837 21.7337C151.837 21.0972 151.623 20.5653 151.196 20.1382C150.769 19.7111 150.242 19.4975 149.613 19.4975C148.994 19.4975 148.47 19.7111 148.043 20.1382C147.616 20.5653 147.402 21.0972 147.402 21.7337C147.402 22.3702 147.616 22.902 148.043 23.3291C148.47 23.7563 148.994 23.9698 149.613 23.9698Z" fill="#050722"/>
<path d="M155.311 24.8744H154.218V15.7035H155.311V24.8744Z" fill="#050722"/>
<path d="M157.532 17.4497C157.322 17.4497 157.146 17.3786 157.004 17.2362C156.862 17.0938 156.79 16.9221 156.79 16.7211C156.79 16.5201 156.862 16.3484 157.004 16.206C157.146 16.0553 157.322 15.9799 157.532 15.9799C157.733 15.9799 157.904 16.0553 158.047 16.206C158.189 16.3484 158.26 16.5201 158.26 16.7211C158.26 16.9221 158.189 17.0938 158.047 17.2362C157.904 17.3786 157.733 17.4497 157.532 17.4497ZM158.072 24.8744H156.979V18.593H158.072V24.8744Z" fill="#050722"/>
<path d="M162.315 23.5176L164.124 18.593H165.292L162.729 25.2638C162.453 25.9757 162.072 26.5159 161.586 26.8844C161.109 27.2613 160.56 27.4288 159.94 27.3869V26.3693C160.711 26.428 161.276 26.0008 161.636 25.0879L161.749 24.8492L159.011 18.593H160.179L162.315 23.5176Z" fill="#050722"/>
<path d="M171.16 19.6734V18.593H172.253V24.8744H171.16V23.794C170.624 24.6231 169.833 25.0377 168.786 25.0377C167.898 25.0377 167.149 24.7194 166.537 24.0829C165.917 23.438 165.608 22.6549 165.608 21.7337C165.608 20.8208 165.917 20.0419 166.537 19.397C167.157 18.7521 167.907 18.4296 168.786 18.4296C169.833 18.4296 170.624 18.8442 171.16 19.6734ZM168.924 23.9824C169.561 23.9824 170.092 23.7688 170.52 23.3417C170.947 22.8978 171.16 22.3618 171.16 21.7337C171.16 21.0972 170.947 20.5653 170.52 20.1382C170.092 19.7027 169.561 19.4849 168.924 19.4849C168.296 19.4849 167.768 19.7027 167.341 20.1382C166.914 20.5653 166.7 21.0972 166.7 21.7337C166.7 22.3618 166.914 22.8978 167.341 23.3417C167.768 23.7688 168.296 23.9824 168.924 23.9824Z" fill="#050722"/>
<path d="M179.475 23.706L181.447 18.593H182.628L180.115 24.8744H178.834L176.321 18.593H177.502L179.475 23.706Z" fill="#050722"/>
<path d="M188.508 19.6734V18.593H189.601V24.8744H188.508V23.794C187.972 24.6231 187.18 25.0377 186.133 25.0377C185.246 25.0377 184.496 24.7194 183.885 24.0829C183.265 23.438 182.955 22.6549 182.955 21.7337C182.955 20.8208 183.265 20.0419 183.885 19.397C184.504 18.7521 185.254 18.4296 186.133 18.4296C187.18 18.4296 187.972 18.8442 188.508 19.6734ZM186.272 23.9824C186.908 23.9824 187.44 23.7688 187.867 23.3417C188.294 22.8978 188.508 22.3618 188.508 21.7337C188.508 21.0972 188.294 20.5653 187.867 20.1382C187.44 19.7027 186.908 19.4849 186.272 19.4849C185.643 19.4849 185.116 19.7027 184.689 20.1382C184.262 20.5653 184.048 21.0972 184.048 21.7337C184.048 22.3618 184.262 22.8978 184.689 23.3417C185.116 23.7688 185.643 23.9824 186.272 23.9824Z" fill="#050722"/>
<path d="M195.742 19.3216L192.525 23.8317H195.867V24.8744H191.031V24.1457L194.234 19.6357H191.156V18.593H195.742V19.3216Z" fill="#050722"/>
<path d="M197.723 17.4497C197.513 17.4497 197.338 17.3786 197.195 17.2362C197.053 17.0938 196.982 16.9221 196.982 16.7211C196.982 16.5201 197.053 16.3484 197.195 16.206C197.338 16.0553 197.513 15.9799 197.723 15.9799C197.924 15.9799 198.095 16.0553 198.238 16.206C198.38 16.3484 198.451 16.5201 198.451 16.7211C198.451 16.9221 198.38 17.0938 198.238 17.2362C198.095 17.3786 197.924 17.4497 197.723 17.4497ZM198.263 24.8744H197.17V18.593H198.263V24.8744Z" fill="#050722"/>
<path d="M201.023 18.593V19.6482C201.383 18.8693 202.037 18.4799 202.983 18.4799V19.6231C202.447 19.598 201.987 19.7404 201.601 20.0503C201.216 20.3601 201.023 20.8585 201.023 21.5452V24.8744H199.93V18.593H201.023Z" fill="#050722"/>
<path d="M205.146 24.8744H204.053V15.7035H205.146V24.8744Z" fill="#050722"/>
<path d="M207.366 17.4497C207.156 17.4497 206.98 17.3786 206.838 17.2362C206.696 17.0938 206.625 16.9221 206.625 16.7211C206.625 16.5201 206.696 16.3484 206.838 16.206C206.98 16.0553 207.156 15.9799 207.366 15.9799C207.567 15.9799 207.738 16.0553 207.881 16.206C208.023 16.3484 208.094 16.5201 208.094 16.7211C208.094 16.9221 208.023 17.0938 207.881 17.2362C207.738 17.3786 207.567 17.4497 207.366 17.4497ZM207.906 24.8744H206.813V18.593H207.906V24.8744Z" fill="#050722"/>
<path d="M214.787 19.6734V18.593H215.867V24.6105C215.867 25.5402 215.553 26.2605 214.925 26.7714C214.289 27.2906 213.535 27.5502 212.664 27.5502C211.96 27.5502 211.353 27.4162 210.842 27.1482C210.331 26.8886 209.946 26.5117 209.686 26.0176L210.641 25.4774C210.985 26.1809 211.667 26.5327 212.689 26.5327C213.342 26.5327 213.853 26.361 214.222 26.0176C214.598 25.6742 214.787 25.2052 214.787 24.6105V23.7186C214.234 24.5561 213.447 24.9749 212.425 24.9749C211.521 24.9749 210.763 24.6566 210.151 24.0201C209.531 23.3752 209.222 22.6005 209.222 21.696C209.222 20.7915 209.531 20.0209 210.151 19.3844C210.763 18.7479 211.521 18.4296 212.425 18.4296C213.455 18.4296 214.243 18.8442 214.787 19.6734ZM214.787 21.696C214.787 21.0678 214.573 20.5402 214.146 20.1131C213.719 19.6859 213.187 19.4724 212.551 19.4724C211.914 19.4724 211.382 19.6859 210.955 20.1131C210.528 20.5402 210.315 21.0678 210.315 21.696C210.315 22.3325 210.528 22.8643 210.955 23.2915C211.382 23.7186 211.914 23.9322 212.551 23.9322C213.187 23.9322 213.719 23.7186 214.146 23.2915C214.573 22.8643 214.787 22.3325 214.787 21.696Z" fill="#050722"/>
<path d="M218.076 17.4497C217.867 17.4497 217.691 17.3786 217.548 17.2362C217.406 17.0938 217.335 16.9221 217.335 16.7211C217.335 16.5201 217.406 16.3484 217.548 16.206C217.691 16.0553 217.867 15.9799 218.076 15.9799C218.277 15.9799 218.449 16.0553 218.591 16.206C218.733 16.3484 218.805 16.5201 218.805 16.7211C218.805 16.9221 218.733 17.0938 218.591 17.2362C218.449 17.3786 218.277 17.4497 218.076 17.4497ZM218.616 24.8744H217.523V18.593H218.616V24.8744Z" fill="#050722"/>
<path d="M59.0708 45C57.9206 45 56.9491 44.7431 56.1563 44.2294C55.3634 43.7158 54.7995 43.0067 54.4645 42.1021L56.441 40.9464C56.8989 42.1412 57.7978 42.7387 59.1378 42.7387C59.7632 42.7387 60.2322 42.627 60.5449 42.4037C60.8576 42.1803 61.0139 41.8788 61.0139 41.4991C61.0139 41.086 60.8296 40.7677 60.4611 40.5444C60.0926 40.3099 59.4338 40.0586 58.4846 39.7906C57.4572 39.4779 56.6476 39.115 56.0558 38.7018C55.3187 38.1546 54.9502 37.3506 54.9502 36.2898C54.9502 35.2177 55.3243 34.3746 56.0725 33.7604C56.8207 33.1239 57.7308 32.8057 58.8028 32.8057C59.7409 32.8057 60.5728 33.0346 61.2986 33.4924C62.0245 33.9503 62.5884 34.598 62.9904 35.4355L61.0474 36.5578C60.5784 35.5527 59.8302 35.0502 58.8028 35.0502C58.3338 35.0502 57.9597 35.1619 57.6806 35.3852C57.4014 35.5974 57.2618 35.8766 57.2618 36.2227C57.2618 36.5913 57.4126 36.8928 57.7141 37.1273C58.0491 37.3618 58.6409 37.6075 59.4896 37.8643L60.2936 38.1323C60.4388 38.177 60.69 38.2719 61.0474 38.4171C61.3824 38.5399 61.6281 38.6571 61.7844 38.7688C62.3316 39.1038 62.7001 39.45 62.8899 39.8073C63.1803 40.2764 63.3254 40.8291 63.3254 41.4656C63.3254 42.5488 62.929 43.4087 62.1362 44.0452C61.3433 44.6817 60.3215 45 59.0708 45Z" fill="#050722"/>
<path d="M69.205 45C67.8984 45 66.8264 44.6315 65.9889 43.8944C65.1514 43.1574 64.7326 42.1691 64.7326 40.9296V33.0402H67.0274V40.7454C67.0274 41.3707 67.2061 41.8621 67.5634 42.2194C67.9319 42.5656 68.4791 42.7387 69.205 42.7387C69.9308 42.7387 70.4724 42.5656 70.8298 42.2194C71.1983 41.8621 71.3825 41.3707 71.3825 40.7454V33.0402H73.6941V40.9296C73.6941 42.1691 73.2753 43.1574 72.4378 43.8944C71.6003 44.6315 70.5227 45 69.205 45Z" fill="#050722"/>
<path d="M82.8619 38.6851C83.8893 39.2769 84.403 40.1703 84.403 41.3651C84.403 42.359 84.0512 43.1742 83.3477 43.8107C82.6442 44.4472 81.7787 44.7655 80.7514 44.7655H75.7765V33.0402H80.3996C81.3935 33.0402 82.2366 33.3528 82.9289 33.9782C83.6213 34.6035 83.9675 35.3908 83.9675 36.34C83.9675 37.3115 83.5989 38.0932 82.8619 38.6851ZM80.3996 35.201H78.0881V37.7805H80.3996C80.757 37.7805 81.0529 37.6577 81.2874 37.412C81.5331 37.1664 81.6559 36.8593 81.6559 36.4908C81.6559 36.1222 81.5386 35.8152 81.3041 35.5695C81.0696 35.3238 80.7681 35.201 80.3996 35.201ZM78.0881 42.6047H80.7514C81.1422 42.6047 81.4661 42.4762 81.7229 42.2194C81.9797 41.9514 82.1082 41.6164 82.1082 41.2144C82.1082 40.8235 81.9797 40.4997 81.7229 40.2429C81.4661 39.9748 81.1422 39.8408 80.7514 39.8408H78.0881V42.6047Z" fill="#050722"/>
<path d="M89.7418 45C88.5916 45 87.6201 44.7431 86.8272 44.2294C86.0343 43.7158 85.4704 43.0067 85.1354 42.1021L87.112 40.9464C87.5698 42.1412 88.4687 42.7387 89.8088 42.7387C90.4341 42.7387 90.9031 42.627 91.2158 42.4037C91.5285 42.1803 91.6848 41.8788 91.6848 41.4991C91.6848 41.086 91.5006 40.7677 91.1321 40.5444C90.7635 40.3099 90.1047 40.0586 89.1555 39.7906C88.1282 39.4779 87.3185 39.115 86.7267 38.7018C85.9897 38.1546 85.6212 37.3506 85.6212 36.2898C85.6212 35.2177 85.9953 34.3746 86.7434 33.7604C87.4916 33.1239 88.4017 32.8057 89.4738 32.8057C90.4118 32.8057 91.2437 33.0346 91.9696 33.4924C92.6954 33.9503 93.2594 34.598 93.6614 35.4355L91.7183 36.5578C91.2493 35.5527 90.5011 35.0502 89.4738 35.0502C89.0048 35.0502 88.6307 35.1619 88.3515 35.3852C88.0723 35.5974 87.9327 35.8766 87.9327 36.2227C87.9327 36.5913 88.0835 36.8928 88.385 37.1273C88.72 37.3618 89.3118 37.6075 90.1605 37.8643L90.9646 38.1323C91.1097 38.177 91.361 38.2719 91.7183 38.4171C92.0533 38.5399 92.299 38.6571 92.4553 38.7688C93.0025 39.1038 93.371 39.45 93.5609 39.8073C93.8512 40.2764 93.9964 40.8291 93.9964 41.4656C93.9964 42.5488 93.6 43.4087 92.8071 44.0452C92.0142 44.6817 90.9925 45 89.7418 45Z" fill="#050722"/>
<path d="M95.4223 44.7655V33.0402H97.7338V44.7655H95.4223Z" fill="#050722"/>
<path d="M99.9043 33.0402H104.561C106.169 33.0402 107.509 33.6041 108.581 34.732C109.664 35.8487 110.206 37.2389 110.206 38.9028C110.206 40.5667 109.664 41.957 108.581 43.0737C107.509 44.2015 106.169 44.7655 104.561 44.7655H99.9043V33.0402ZM102.216 42.5544H104.561C105.577 42.5544 106.403 42.2194 107.04 41.5494C107.676 40.857 107.995 39.9748 107.995 38.9028C107.995 37.8196 107.676 36.943 107.04 36.273C106.403 35.5918 105.577 35.2512 104.561 35.2512H102.216V42.5544Z" fill="#050722"/>
<path d="M111.846 44.7655V33.0402H114.157V44.7655H111.846Z" fill="#050722"/>
<path d="M122.994 33.0402H125.607L121.587 40.1926V44.7655H119.292V40.1926L115.289 33.0402H117.902L120.448 37.9313L122.994 33.0402Z" fill="#050722"/>
<path d="M135.26 44.7655H132.748L132.044 42.6549H127.371L126.667 44.7655H124.171L128.275 33.0402H131.14L135.26 44.7655ZM129.716 35.7035L128.108 40.4941H131.324L129.716 35.7035Z" fill="#050722"/>
<path d="M138.71 33.0402V42.5544H143.183V44.7655H136.399V33.0402H138.71Z" fill="#050722"/>
<path d="M154.873 44.7655H152.361L151.657 42.6549H146.984L146.28 44.7655H143.784L147.888 33.0402H150.753L154.873 44.7655ZM149.329 35.7035L147.721 40.4941H150.937L149.329 35.7035Z" fill="#050722"/>
<path d="M164.94 44.7655H162.444L160.082 40.6951H158.323V44.7655H156.012V33.0402H160.702C161.785 33.0402 162.706 33.4198 163.466 34.1792C164.225 34.9386 164.605 35.8542 164.605 36.9263C164.605 37.6521 164.398 38.3277 163.985 38.9531C163.572 39.5672 163.025 40.0307 162.343 40.3434L164.94 44.7655ZM160.702 35.201H158.323V38.6683H160.702C161.137 38.6683 161.511 38.5008 161.824 38.1658C162.137 37.8196 162.293 37.4064 162.293 36.9263C162.293 36.4461 162.137 36.0385 161.824 35.7035C161.511 35.3685 161.137 35.201 160.702 35.201Z" fill="#050722"/>
<path d="M170.488 33.0402H174.86C175.977 33.0402 176.926 33.4198 177.708 34.1792C178.478 34.9386 178.864 35.871 178.864 36.9765C178.864 38.082 178.478 39.0145 177.708 39.7738C176.926 40.5332 175.977 40.9129 174.86 40.9129H172.8V44.7655H170.488V33.0402ZM172.8 38.7521H174.86C175.352 38.7521 175.759 38.5846 176.083 38.2496C176.407 37.9034 176.569 37.479 176.569 36.9765C176.569 36.4628 176.407 36.0385 176.083 35.7035C175.759 35.3685 175.352 35.201 174.86 35.201H172.8V38.7521Z" fill="#050722"/>
<path d="M190.153 43.2412C188.969 44.4137 187.528 45 185.831 45C184.134 45 182.693 44.4137 181.509 43.2412C180.337 42.0463 179.751 40.6002 179.751 38.9028C179.751 37.1943 180.337 35.7537 181.509 34.5812C182.693 33.3975 184.134 32.8057 185.831 32.8057C187.528 32.8057 188.969 33.3975 190.153 34.5812C191.336 35.7537 191.928 37.1943 191.928 38.9028C191.928 40.6114 191.336 42.0575 190.153 43.2412ZM183.134 41.6666C183.849 42.3813 184.748 42.7387 185.831 42.7387C186.914 42.7387 187.813 42.3813 188.528 41.6666C189.254 40.9408 189.617 40.0195 189.617 38.9028C189.617 37.7861 189.254 36.8648 188.528 36.139C187.802 35.4131 186.903 35.0502 185.831 35.0502C184.759 35.0502 183.86 35.4131 183.134 36.139C182.408 36.8648 182.045 37.7861 182.045 38.9028C182.045 40.0195 182.408 40.9408 183.134 41.6666Z" fill="#050722"/>
<path d="M202.481 44.7655H199.985L197.623 40.6951H195.864V44.7655H193.553V33.0402H198.243C199.326 33.0402 200.247 33.4198 201.007 34.1792C201.766 34.9386 202.146 35.8542 202.146 36.9263C202.146 37.6521 201.939 38.3277 201.526 38.9531C201.113 39.5672 200.566 40.0307 199.885 40.3434L202.481 44.7655ZM198.243 35.201H195.864V38.6683H198.243C198.679 38.6683 199.053 38.5008 199.365 38.1658C199.678 37.8196 199.834 37.4064 199.834 36.9263C199.834 36.4461 199.678 36.0385 199.365 35.7035C199.053 35.3685 198.679 35.201 198.243 35.201Z" fill="#050722"/>
<path d="M202.726 33.0402H211.352V35.2512H208.186V44.7655H205.875V35.2512H202.726V33.0402Z" fill="#050722"/>
<path d="M221.842 44.7655H219.33L218.626 42.6549H213.953L213.249 44.7655H210.753L214.857 33.0402H217.721L221.842 44.7655ZM216.298 35.7035L214.69 40.4941H217.906L216.298 35.7035Z" fill="#050722"/>
<path d="M225.292 33.0402V42.5544H229.765V44.7655H222.981V33.0402H225.292Z" fill="#050722"/>
<path d="M231.078 44.7655V33.0402H233.389V44.7655H231.078Z" fill="#050722"/>
</svg>
